<?xml version="1.0" encoding="UTF-8" standalone="no"?>
<!DOCTYPE svg PUBLIC "-//W3C//DTD SVG 1.1//EN" "http://www.w3.org/Graphics/SVG/1.1/DTD/svg11.dtd">
<svg width="100%" height="100%" viewBox="0 0 837 786" version="1.1" xmlns="http://www.w3.org/2000/svg" xmlns:xlink="http://www.w3.org/1999/xlink" xml:space="preserve" xmlns:serif="http://www.serif.com/" style="fill-rule:evenodd;clip-rule:evenodd;stroke-linecap:round;stroke-linejoin:round;stroke-miterlimit:1.5;">
    <g transform="matrix(1,0,0,1,-1218.58,-73.848)">
        <g transform="matrix(1,0,0,1,1098.14,0)">
            <g transform="matrix(1,0,0,1,67.8554,20.045)">
                <g>
                    <path d="M252.612,576.378C253.46,575 254.453,573.72 255.578,572.571C235.42,504.787 216.377,436.756 198.199,368.554C196.6,362.557 196.951,355.501 200.741,350.049C204.727,344.314 211.843,341.543 219.255,343.399L277.598,358.002C283.703,359.53 288.763,363.645 292.083,368.178C295.708,373.126 297.769,379.228 297.264,385.137C292.889,436.305 288.594,487.478 284.363,538.654C289.792,535.349 295.885,532.99 302.403,531.816C302.57,529.435 302.78,527.046 303.032,524.649C311.566,443.456 367.102,371.256 445.785,327.152L436.923,330.474C431.459,332.521 425.406,332.315 420.095,329.899C414.783,327.484 410.649,323.057 408.601,317.594L408.245,316.643C406.197,311.179 406.404,305.126 408.819,299.814C411.235,294.503 415.661,290.369 421.125,288.321L452.692,276.49C452.692,276.49 452.502,275.782 452.502,275.782L420.869,287.638C415.405,289.685 409.352,289.479 404.04,287.063C398.729,284.648 394.595,280.222 392.547,274.758L392.191,273.807C390.143,268.343 390.35,262.29 392.765,256.979C395.18,251.667 399.607,247.533 405.071,245.485C405.071,245.485 440.796,232.096 440.796,232.096L437.592,220.137C434.447,208.401 441.412,196.337 453.148,193.192L516.899,176.11C528.636,172.966 540.699,179.93 543.844,191.667L544.284,193.31L571.759,183.013C577.222,180.965 583.276,181.172 588.587,183.588C593.898,186.003 598.033,190.429 600.08,195.893L600.437,196.844C602.484,202.308 602.278,208.361 599.862,213.672C597.447,218.984 593.021,223.118 587.557,225.166L555.99,236.996C555.99,236.996 556.18,237.705 556.18,237.705L587.813,225.849C593.277,223.801 599.33,224.008 604.641,226.423C609.953,228.839 614.087,233.265 616.135,238.729L616.491,239.68C618.539,245.144 618.332,251.197 615.917,256.508C613.501,261.82 609.075,265.954 603.611,268.001C603.611,268.001 567.885,281.391 567.885,281.391C567.885,281.391 569.02,285.626 569.02,285.626C585.718,283.231 602.77,281.982 620.041,281.982C782.582,281.982 902.056,392.269 887.922,526.74C885.959,545.422 881.518,563.619 874.882,581.106C876.403,586.847 877.564,592.876 878.321,599.179C878.71,602.416 877.495,605.64 875.067,607.817C872.639,609.994 869.302,610.85 866.126,610.111C864.749,609.79 863.367,609.518 861.982,609.293C811.791,702.404 697.281,769.407 570.913,769.407C455.072,769.407 360.983,713.21 321.752,632.469C318.56,633.067 315.265,633.38 311.896,633.38C305.206,633.38 298.81,632.146 292.932,629.901C309.134,682.431 326.074,734.791 343.949,786.912C346.005,792.905 345.192,799.57 342.26,805.206C339.557,810.401 334.795,815.158 328.566,817.328L268.399,838.29C261.544,840.678 254.141,839.101 249.139,834.351C244.083,829.55 242.265,822.611 242.761,816.326C248.239,746.982 253.795,677.644 259.455,608.311C257.759,607.123 256.224,605.701 254.888,604.104C198.21,621.688 142.216,642.186 87.035,665.257C80.131,668.144 72.498,666.536 66.897,661.213C62.227,656.775 59.376,649.987 58.869,643.121L52.667,559.103C52.169,552.37 53.923,545.177 57.973,540.11C62.939,533.898 70.407,531.612 77.507,533.72C135.3,550.878 193.736,565.154 252.612,576.378ZM259.223,589.994C259.894,596.38 265.116,602.576 271.961,602.095C272.89,602.029 273.768,601.845 274.589,601.558C281.709,614.54 295.752,623.38 311.896,623.38C317.324,623.38 322.515,622.381 327.284,620.561C362.694,702.335 455.812,759.407 570.913,759.407C696.056,759.407 809.393,691.943 856.267,598.616C860.325,598.853 864.377,599.437 868.392,600.371C867.556,593.409 866.189,586.81 864.355,580.595C871.338,562.985 875.99,544.6 877.977,525.694C891.534,396.705 775.957,291.982 620.041,291.982C600.221,291.982 580.697,293.674 561.686,296.893L555.877,275.212L600.102,258.638C603.082,257.521 605.496,255.266 606.814,252.368C608.131,249.471 608.244,246.17 607.127,243.189L606.771,242.238C605.654,239.258 603.399,236.844 600.501,235.526C597.604,234.209 594.303,234.096 591.322,235.213L549.372,250.935L543.981,230.818L584.047,215.802C587.028,214.685 589.442,212.43 590.76,209.533C592.077,206.636 592.19,203.334 591.073,200.354L590.716,199.403C589.599,196.422 587.344,194.008 584.447,192.69C581.55,191.373 578.248,191.26 575.268,192.377L537.476,206.541L534.184,194.255C532.469,187.853 525.889,184.054 519.488,185.77L455.736,202.852C449.335,204.567 445.536,211.147 447.251,217.549L452.805,238.275L408.58,254.849C405.6,255.966 403.185,258.221 401.868,261.118C400.55,264.015 400.438,267.317 401.555,270.297L401.911,271.248C403.028,274.229 405.283,276.643 408.18,277.961C411.077,279.278 414.379,279.391 417.359,278.274L459.31,262.551L464.7,282.669L424.634,297.685C421.654,298.802 419.24,301.057 417.922,303.954C416.605,306.851 416.492,310.153 417.609,313.133L417.965,314.084C419.082,317.064 421.337,319.479 424.234,320.796C427.131,322.114 430.433,322.227 433.413,321.11L471.205,306.946L475.575,323.256C386.874,363.682 322.064,439.237 312.977,525.694C312.438,530.827 312.103,535.921 311.966,540.972C311.943,540.972 311.92,540.972 311.896,540.972C293.281,540.972 277.461,552.725 271.825,569.027C276.887,507.44 282.035,445.859 287.3,384.285C287.605,380.715 286.206,377.077 284.016,374.087C281.97,371.293 278.932,368.644 275.17,367.702L216.827,353.099C213.696,352.316 210.636,353.333 208.952,355.756C206.866,358.757 206.982,362.678 207.861,365.978C226.644,436.444 246.349,506.728 267.257,576.745L270.002,576.643L269.998,576.671C269.744,576.662 269.488,576.662 269.23,576.672C267.185,576.748 265.409,577.412 263.94,578.473C261.966,576.031 260.237,574.247 260.095,575.281C260.08,575.389 260.067,575.496 260.055,575.602C260.014,576.004 259.996,576.414 260.004,576.828C260.01,577.15 260.031,577.469 260.066,577.782C260.315,577.829 260.565,577.875 260.814,577.921C261.761,578.097 262.658,578.404 263.487,578.821C260.356,581.373 258.783,585.803 259.223,589.994ZM258.988,587.753C196.994,576.241 135.474,561.361 74.661,543.307C71.419,542.344 68.052,543.517 65.785,546.354C63.234,549.544 62.326,554.127 62.639,558.367L68.842,642.385C69.165,646.752 70.815,651.141 73.785,653.964C76.408,656.457 79.945,657.383 83.178,656.031C141.097,631.815 199.906,610.42 259.459,592.234L258.988,587.753ZM269.984,602.234C264.131,673.854 258.388,745.481 252.73,817.113C252.457,820.57 253.245,824.46 256.025,827.1C258.379,829.335 261.883,829.971 265.109,828.847L325.276,807.884C328.992,806.59 331.776,803.689 333.389,800.59C335.063,797.371 335.664,793.579 334.49,790.156C313.079,727.725 293.007,664.952 273.937,601.956L269.984,602.234Z" style="fill:rgb(38,38,38);"/>
                    <g transform="matrix(0.367951,-0.367951,0.367951,0.367951,285.107,552.569)">
                        <path d="M161.681,137.113C169.708,132.479 179.597,132.479 187.624,137.113L227.537,160.157C235.564,164.791 240.509,173.356 240.509,182.625L240.509,228.712C240.509,237.981 235.564,246.546 227.537,251.18L187.624,274.224C179.597,278.858 169.708,278.858 161.681,274.224L121.767,251.18C113.741,246.546 108.796,237.981 108.796,228.712L108.796,182.625C108.796,173.356 113.741,164.791 121.767,160.157L161.681,137.113ZM168.887,149.595L128.974,172.639C125.407,174.699 123.209,178.505 123.209,182.625L123.209,228.712C123.209,232.832 125.407,236.638 128.974,238.698L168.887,261.742C172.455,263.802 176.85,263.802 180.418,261.742L220.331,238.698C223.898,236.638 226.096,232.832 226.096,228.712L226.096,182.625C226.096,178.505 223.898,174.699 220.331,172.639L180.418,149.595C176.85,147.535 172.455,147.535 168.887,149.595Z" style="fill:rgb(38,38,38);"/>
                        <path d="M164.924,239.296C150.334,235.077 139.652,221.61 139.652,205.669C139.652,189.727 150.334,176.26 164.924,172.041L164.924,239.296ZM184.381,172.041C198.971,176.26 209.652,189.727 209.652,205.669C209.652,221.61 198.971,235.077 184.381,239.296L184.381,172.041Z" style="fill:rgb(38,38,38);"/>
                    </g>
                    <g transform="matrix(0.450646,0.26018,-0.26018,0.450646,449.765,516.761)">
                        <path d="M161.681,137.113C169.708,132.479 179.597,132.479 187.624,137.113L227.537,160.157C235.564,164.791 240.509,173.356 240.509,182.625L240.509,228.712C240.509,237.981 235.564,246.546 227.537,251.18L187.624,274.224C179.597,278.858 169.708,278.858 161.681,274.224L121.767,251.18C113.741,246.546 108.796,237.981 108.796,228.712L108.796,182.625C108.796,173.356 113.741,164.791 121.767,160.157L161.681,137.113ZM168.887,149.595L128.974,172.639C125.407,174.699 123.209,178.505 123.209,182.625L123.209,228.712C123.209,232.832 125.407,236.638 128.974,238.698L168.887,261.742C172.455,263.802 176.85,263.802 180.418,261.742L220.331,238.698C223.898,236.638 226.096,232.832 226.096,228.712L226.096,182.625C226.096,178.505 223.898,174.699 220.331,172.639L180.418,149.595C176.85,147.535 172.455,147.535 168.887,149.595Z" style="fill:rgb(38,38,38);"/>
                        <path d="M164.924,239.296C150.334,235.077 139.652,221.61 139.652,205.669C139.652,189.727 150.334,176.26 164.924,172.041L164.924,239.296ZM184.381,172.041C198.971,176.26 209.652,189.727 209.652,205.669C209.652,221.61 198.971,235.077 184.381,239.296L184.381,172.041Z" style="fill:rgb(38,38,38);"/>
                    </g>
                    <g>
                        <path d="M750.126,521.366C800.666,498.477 860.175,531.943 868.392,600.371C847.532,595.518 825.68,600.112 807.193,613.76C795.795,603.271 788.791,600.912 770.596,601.252C760.036,601.449 754.344,592.551 758.948,580.219C764.967,564.098 767.489,546.169 750.126,521.366Z" style="fill:none;stroke:rgb(38,38,38);stroke-width:9.54px;"/>
                        <path d="M868.392,600.371C868.392,600.371 804.988,582.741 782.576,563.981" style="fill:none;stroke:rgb(38,38,38);stroke-width:9.54px;"/>
                    </g>
                    <g transform="matrix(1.10208,0,0,1.10208,-61.8012,-48.3731)">
                        <circle cx="667.287" cy="478.233" r="23.526" style="fill:rgb(38,38,38);"/>
                    </g>
                    <g transform="matrix(1.10208,0,0,1.10208,57.1969,-80.5958)">
                        <circle cx="667.287" cy="478.233" r="23.526" style="fill:rgb(38,38,38);"/>
                    </g>
                    <g transform="matrix(0.476004,0.879443,-1.17749,0.637323,835.135,-218.525)">
                        <path d="M731.621,476.821L731.621,478.439C731.621,482.302 729.567,486.006 725.91,488.737C722.253,491.469 717.293,493.003 712.121,493.003L473.37,493.003C468.198,493.003 463.239,491.469 459.582,488.737C455.925,486.006 453.87,482.302 453.87,478.439L453.87,476.821C453.87,472.958 455.925,469.254 459.582,466.522C463.239,463.791 468.198,462.257 473.37,462.257L712.121,462.257C717.293,462.257 722.253,463.791 725.91,466.522C729.567,469.254 731.621,472.958 731.621,476.821ZM724.121,476.821C724.121,474.444 722.857,472.164 720.607,470.483C718.356,468.802 715.304,467.858 712.121,467.858L473.37,467.858C470.188,467.858 467.135,468.802 464.885,470.483C462.634,472.164 461.37,474.444 461.37,476.821L461.37,478.439C461.37,480.816 462.634,483.096 464.885,484.777C467.135,486.457 470.188,487.402 473.37,487.402L712.121,487.402C715.304,487.402 718.356,486.457 720.607,484.777C722.857,483.096 724.121,480.816 724.121,478.439L724.121,476.821Z" style="fill:rgb(38,38,38);"/>
                    </g>
                </g>
                <g transform="matrix(0.435845,0,0,0.435845,157.277,102.449)">
                    <path d="M151.067,203.581L159.453,226.243L182.114,234.629C188.867,237.128 193.351,243.567 193.351,250.767C193.351,257.968 188.867,264.407 182.114,266.906L159.453,275.292L151.067,297.954C148.568,304.707 142.129,309.19 134.928,309.19C127.728,309.19 121.289,304.707 118.79,297.954L110.404,275.292L87.742,266.906C80.989,264.407 76.506,257.968 76.506,250.767C76.506,243.567 80.989,237.128 87.742,234.629L110.404,226.243L118.79,203.581C121.289,196.828 127.728,192.345 134.928,192.345C142.129,192.345 148.568,196.828 151.067,203.581ZM134.928,209.553L123.797,239.636L93.714,250.767L123.797,261.899L134.928,291.982L146.06,261.899L176.143,250.767L146.06,239.636L134.928,209.553Z"/>
                </g>
                <g transform="matrix(0.317298,0,0,0.317298,64.1912,202.051)">
                    <path d="M157.096,201.35L164.456,221.24L184.346,228.599C193.622,232.032 199.78,240.877 199.78,250.767C199.78,260.658 193.622,269.503 184.346,272.936L164.456,280.295L157.096,300.185C153.664,309.461 144.819,315.619 134.928,315.619C125.038,315.619 116.193,309.461 112.76,300.185L105.4,280.295L85.511,272.936C76.235,269.503 70.077,260.658 70.077,250.767C70.077,240.877 76.235,232.032 85.511,228.599L105.401,221.24L112.76,201.35C116.193,192.074 125.038,185.916 134.928,185.916C144.819,185.916 153.664,192.074 157.096,201.35ZM134.928,209.553L123.797,239.636L93.714,250.767L123.797,261.899L134.928,291.982L146.06,261.899L176.143,250.767L146.06,239.636L134.928,209.553Z"/>
                </g>
                <g transform="matrix(0.617768,0,0,0.617768,23.6492,-58.4776)">
                    <path d="M146.314,205.34L155.509,230.187L180.356,239.382C185.12,241.144 188.283,245.687 188.283,250.767C188.283,255.848 185.12,260.39 180.356,262.153L155.509,271.348L146.314,296.195C144.551,300.959 140.008,304.122 134.928,304.122C129.848,304.122 125.305,300.959 123.542,296.195L114.348,271.348L89.501,262.153C84.736,260.39 81.574,255.848 81.574,250.767C81.574,245.687 84.736,241.144 89.501,239.382L114.348,230.187L123.542,205.34C125.305,200.576 129.848,197.413 134.928,197.413C140.008,197.413 144.551,200.576 146.314,205.34ZM134.928,209.553L123.797,239.636L93.714,250.767L123.797,261.899L134.928,291.982L146.06,261.899L176.143,250.767L146.06,239.636L134.928,209.553Z"/>
                </g>
                <g>
                    <g transform="matrix(1,0,0,1,-25.5849,-14.6845)">
                        <path d="M259.633,68.488C292.617,68.488 319.396,95.267 319.396,128.251C319.396,161.235 292.617,188.014 259.633,188.014C226.649,188.014 199.87,161.235 199.87,128.251C199.87,95.267 226.649,68.488 259.633,68.488ZM259.633,75.988C230.788,75.988 207.37,99.406 207.37,128.251C207.37,157.096 230.788,180.514 259.633,180.514C288.478,180.514 311.896,157.096 311.896,128.251C311.896,99.406 288.478,75.988 259.633,75.988Z"/>
                    </g>
                    <g transform="matrix(0.664052,0.747687,-0.815192,0.724006,519.695,-247.141)">
                        <path d="M73.822,379.375C53.343,379.375 36.716,396.002 36.716,416.481C36.716,436.961 53.343,453.588 73.822,453.588C63.583,447.403 55.269,432.905 55.269,416.481C55.269,400.057 63.583,385.559 73.822,379.375Z" style="fill:rgb(38,38,38);"/>
                    </g>
                </g>
                <g transform="matrix(0.548714,0,0,0.548714,-32.4497,129.444)">
                    <g transform="matrix(1,0,0,1,-25.5849,-14.6845)">
                        <path d="M259.633,62.319C296.022,62.319 325.565,91.862 325.565,128.251C325.565,164.64 296.022,194.182 259.633,194.182C223.244,194.182 193.701,164.64 193.701,128.251C193.701,91.862 223.244,62.319 259.633,62.319ZM259.633,75.988C230.788,75.988 207.37,99.406 207.37,128.251C207.37,157.096 230.788,180.514 259.633,180.514C288.478,180.514 311.896,157.096 311.896,128.251C311.896,99.406 288.478,75.988 259.633,75.988Z"/>
                    </g>
                    <g transform="matrix(0.664052,0.747687,-0.815192,0.724006,519.695,-247.141)">
                        <path d="M73.822,379.375C53.343,379.375 36.716,396.002 36.716,416.481C36.716,436.961 53.343,453.588 73.822,453.588C63.583,447.403 55.269,432.905 55.269,416.481C55.269,400.057 63.583,385.559 73.822,379.375Z" style="fill:rgb(38,38,38);"/>
                    </g>
                </g>
                <g transform="matrix(0.47552,0,0,0.47552,81.6909,242.985)">
                    <g transform="matrix(1,0,0,1,-25.5849,-14.6845)">
                        <path d="M259.633,60.215C297.183,60.215 327.669,90.701 327.669,128.251C327.669,165.801 297.183,196.286 259.633,196.286C222.083,196.286 191.597,165.801 191.597,128.251C191.597,90.701 222.083,60.215 259.633,60.215ZM259.633,75.988C230.788,75.988 207.37,99.406 207.37,128.251C207.37,157.096 230.788,180.514 259.633,180.514C288.478,180.514 311.896,157.096 311.896,128.251C311.896,99.406 288.478,75.988 259.633,75.988Z"/>
                    </g>
                    <g transform="matrix(0.664052,0.747687,-0.815192,0.724006,519.695,-247.141)">
                        <path d="M73.822,379.375C53.343,379.375 36.716,396.002 36.716,416.481C36.716,436.961 53.343,453.588 73.822,453.588C63.583,447.403 55.269,432.905 55.269,416.481C55.269,400.057 63.583,385.559 73.822,379.375Z" style="fill:rgb(38,38,38);"/>
                    </g>
                </g>
            </g>
        </g>
    </g>
</svg>
